<mxfile host="Electron" agent="Mozilla/5.0 (Windows NT 10.0; Win64; x64) AppleWebKit/537.36 (KHTML, like Gecko) draw.io/25.0.2 Chrome/128.0.6613.186 Electron/32.2.5 Safari/537.36" version="25.0.2">
  <diagram name="Page-1" id="piaqWnsyI5IjvsUwxxv-">
    <mxGraphModel dx="4465" dy="2695" grid="1" gridSize="22" guides="1" tooltips="1" connect="1" arrows="1" fold="1" page="1" pageScale="1" pageWidth="850" pageHeight="1100" math="0" shadow="0">
      <root>
        <mxCell id="0" />
        <mxCell id="1" parent="0" />
        <mxCell id="CpkmgVg2mhcoL7ge-9UP-18" value="" style="rounded=1;whiteSpace=wrap;html=1;fillColor=none;dashed=1;dashPattern=8 8;strokeWidth=6;" parent="1" vertex="1">
          <mxGeometry x="10" y="20" width="840" height="1190" as="geometry" />
        </mxCell>
        <mxCell id="CpkmgVg2mhcoL7ge-9UP-24" value="" style="outlineConnect=0;dashed=0;verticalLabelPosition=bottom;verticalAlign=top;align=center;html=1;shape=mxgraph.aws3.vpc;fillColor=#F58534;gradientColor=none;" parent="1" vertex="1">
          <mxGeometry x="48.81" y="50" width="53.75" height="60" as="geometry" />
        </mxCell>
        <mxCell id="CpkmgVg2mhcoL7ge-9UP-26" value="Private Subnet" style="text;strokeColor=none;align=center;fillColor=none;html=1;verticalAlign=middle;whiteSpace=wrap;rounded=0;fontSize=22;" parent="1" vertex="1">
          <mxGeometry x="140" y="620" width="160" height="40" as="geometry" />
        </mxCell>
        <mxCell id="CpkmgVg2mhcoL7ge-9UP-28" value="Public Subnet" style="text;strokeColor=none;align=center;fillColor=none;html=1;verticalAlign=middle;whiteSpace=wrap;rounded=0;fontSize=22;" parent="1" vertex="1">
          <mxGeometry x="530" y="625" width="160" height="30" as="geometry" />
        </mxCell>
        <mxCell id="CpkmgVg2mhcoL7ge-9UP-29" value="" style="outlineConnect=0;dashed=0;verticalLabelPosition=bottom;verticalAlign=top;align=center;html=1;shape=mxgraph.aws3.ec2;fillColor=#F58534;gradientColor=none;" parent="1" vertex="1">
          <mxGeometry x="186.07" y="460" width="76" height="73" as="geometry" />
        </mxCell>
        <mxCell id="CpkmgVg2mhcoL7ge-9UP-30" value="" style="rounded=0;whiteSpace=wrap;html=1;fillColor=none;" parent="1" vertex="1">
          <mxGeometry x="144.07" y="143" width="160" height="465" as="geometry" />
        </mxCell>
        <mxCell id="CpkmgVg2mhcoL7ge-9UP-31" value="" style="rounded=1;whiteSpace=wrap;html=1;dashed=1;dashPattern=8 8;fillColor=none;strokeWidth=6;" parent="1" vertex="1">
          <mxGeometry x="-533.19" y="2376" width="1176" height="760" as="geometry" />
        </mxCell>
        <mxCell id="CpkmgVg2mhcoL7ge-9UP-32" value="" style="outlineConnect=0;dashed=0;verticalLabelPosition=bottom;verticalAlign=top;align=center;html=1;shape=mxgraph.aws3.s3;fillColor=#E05243;gradientColor=none;" parent="1" vertex="1">
          <mxGeometry x="-484.3800000000001" y="2416" width="76.5" height="93" as="geometry" />
        </mxCell>
        <mxCell id="CpkmgVg2mhcoL7ge-9UP-39" value="Data Warehouse / Serving Layer" style="text;strokeColor=none;align=center;fillColor=none;html=1;verticalAlign=middle;whiteSpace=wrap;rounded=0;fontSize=40;fontColor=#66B2FF;" parent="1" vertex="1">
          <mxGeometry x="3344" y="2030" width="1382" height="50" as="geometry" />
        </mxCell>
        <mxCell id="CpkmgVg2mhcoL7ge-9UP-42" value="Private Subnet" style="text;strokeColor=none;align=center;fillColor=none;html=1;verticalAlign=middle;whiteSpace=wrap;rounded=0;fontSize=22;" parent="1" vertex="1">
          <mxGeometry x="144.07" y="1100" width="160" height="40" as="geometry" />
        </mxCell>
        <mxCell id="CpkmgVg2mhcoL7ge-9UP-43" value="Disaster&lt;div&gt;Recovery&amp;nbsp;&lt;/div&gt;" style="text;strokeColor=none;align=center;fillColor=none;html=1;verticalAlign=middle;whiteSpace=wrap;rounded=0;fontSize=22;" parent="1" vertex="1">
          <mxGeometry x="162.57" y="946" width="125" height="60" as="geometry" />
        </mxCell>
        <mxCell id="CpkmgVg2mhcoL7ge-9UP-44" value="" style="rounded=1;whiteSpace=wrap;html=1;fillColor=none;dashed=1;dashPattern=12 12;fontSize=22;" parent="1" vertex="1">
          <mxGeometry x="140.00000000000003" y="760" width="168.14" height="330" as="geometry" />
        </mxCell>
        <mxCell id="CpkmgVg2mhcoL7ge-9UP-45" value="" style="rounded=0;whiteSpace=wrap;html=1;fillColor=none;" parent="1" vertex="1">
          <mxGeometry x="530" y="143" width="160" height="465" as="geometry" />
        </mxCell>
        <mxCell id="CpkmgVg2mhcoL7ge-9UP-48" value="Glue" style="text;strokeColor=none;align=center;fillColor=none;html=1;verticalAlign=middle;whiteSpace=wrap;rounded=0;fontSize=22;" parent="1" vertex="1">
          <mxGeometry x="1213" y="547" width="160" height="30" as="geometry" />
        </mxCell>
        <mxCell id="CpkmgVg2mhcoL7ge-9UP-50" value="" style="sketch=0;outlineConnect=0;fontColor=#232F3E;gradientColor=none;fillColor=#8C4FFF;strokeColor=none;dashed=0;verticalLabelPosition=bottom;verticalAlign=top;align=center;html=1;fontSize=12;fontStyle=0;aspect=fixed;pointerEvents=1;shape=mxgraph.aws4.glue_data_catalog;" parent="1" vertex="1">
          <mxGeometry x="2903" y="598.62" width="72" height="78" as="geometry" />
        </mxCell>
        <mxCell id="CpkmgVg2mhcoL7ge-9UP-51" value="Data Catalog" style="text;strokeColor=none;align=center;fillColor=none;html=1;verticalAlign=middle;whiteSpace=wrap;rounded=0;fontSize=22;" parent="1" vertex="1">
          <mxGeometry x="2859" y="547" width="160" height="30" as="geometry" />
        </mxCell>
        <mxCell id="CpkmgVg2mhcoL7ge-9UP-52" value="" style="outlineConnect=0;dashed=0;verticalLabelPosition=bottom;verticalAlign=top;align=center;html=1;shape=mxgraph.aws3.athena;fillColor=#F58534;gradientColor=none;" parent="1" vertex="1">
          <mxGeometry x="3315.58" y="590.62" width="76.5" height="76.5" as="geometry" />
        </mxCell>
        <mxCell id="CpkmgVg2mhcoL7ge-9UP-53" value="Athena" style="text;strokeColor=none;align=center;fillColor=none;html=1;verticalAlign=middle;whiteSpace=wrap;rounded=0;fontSize=33;" parent="1" vertex="1">
          <mxGeometry x="3273.83" y="545" width="160" height="30" as="geometry" />
        </mxCell>
        <mxCell id="CpkmgVg2mhcoL7ge-9UP-54" value="" style="sketch=0;points=[[0,0,0],[0.25,0,0],[0.5,0,0],[0.75,0,0],[1,0,0],[0,1,0],[0.25,1,0],[0.5,1,0],[0.75,1,0],[1,1,0],[0,0.25,0],[0,0.5,0],[0,0.75,0],[1,0.25,0],[1,0.5,0],[1,0.75,0]];outlineConnect=0;fontColor=#232F3E;fillColor=#8C4FFF;strokeColor=#ffffff;dashed=0;verticalLabelPosition=bottom;verticalAlign=top;align=center;html=1;fontSize=12;fontStyle=0;aspect=fixed;shape=mxgraph.aws4.resourceIcon;resIcon=mxgraph.aws4.quicksight;" parent="1" vertex="1">
          <mxGeometry x="4203.83" y="590.62" width="78" height="78" as="geometry" />
        </mxCell>
        <mxCell id="CpkmgVg2mhcoL7ge-9UP-55" value="Quicksight" style="text;strokeColor=none;align=center;fillColor=none;html=1;verticalAlign=middle;whiteSpace=wrap;rounded=0;fontSize=22;" parent="1" vertex="1">
          <mxGeometry x="4175.33" y="545" width="160" height="30" as="geometry" />
        </mxCell>
        <mxCell id="CpkmgVg2mhcoL7ge-9UP-56" value="" style="sketch=0;points=[[0,0,0],[0.25,0,0],[0.5,0,0],[0.75,0,0],[1,0,0],[0,1,0],[0.25,1,0],[0.5,1,0],[0.75,1,0],[1,1,0],[0,0.25,0],[0,0.5,0],[0,0.75,0],[1,0.25,0],[1,0.5,0],[1,0.75,0]];outlineConnect=0;fontColor=#232F3E;fillColor=#8C4FFF;strokeColor=#ffffff;dashed=0;verticalLabelPosition=bottom;verticalAlign=top;align=center;html=1;fontSize=12;fontStyle=0;aspect=fixed;shape=mxgraph.aws4.resourceIcon;resIcon=mxgraph.aws4.api_gateway;" parent="1" vertex="1">
          <mxGeometry x="-67.19000000000005" y="1439" width="78" height="78" as="geometry" />
        </mxCell>
        <mxCell id="CpkmgVg2mhcoL7ge-9UP-58" value="API Gateway" style="text;strokeColor=none;align=center;fillColor=none;html=1;verticalAlign=middle;whiteSpace=wrap;rounded=0;fontSize=22;" parent="1" vertex="1">
          <mxGeometry x="-111.19000000000005" y="1389" width="160" height="30" as="geometry" />
        </mxCell>
        <mxCell id="CpkmgVg2mhcoL7ge-9UP-61" value="" style="sketch=0;points=[[0,0,0],[0.25,0,0],[0.5,0,0],[0.75,0,0],[1,0,0],[0,1,0],[0.25,1,0],[0.5,1,0],[0.75,1,0],[1,1,0],[0,0.25,0],[0,0.5,0],[0,0.75,0],[1,0.25,0],[1,0.5,0],[1,0.75,0]];outlineConnect=0;fontColor=#232F3E;fillColor=#8C4FFF;strokeColor=#ffffff;dashed=0;verticalLabelPosition=bottom;verticalAlign=top;align=center;html=1;fontSize=12;fontStyle=0;aspect=fixed;shape=mxgraph.aws4.resourceIcon;resIcon=mxgraph.aws4.kinesis_data_firehose;" parent="1" vertex="1">
          <mxGeometry x="-784" y="280" width="78" height="78" as="geometry" />
        </mxCell>
        <mxCell id="CpkmgVg2mhcoL7ge-9UP-63" value="" style="shape=flexArrow;endArrow=classic;html=1;rounded=0;entryX=0;entryY=0.5;entryDx=0;entryDy=0;entryPerimeter=0;exitX=1;exitY=0.5;exitDx=0;exitDy=0;" parent="1" source="CpkmgVg2mhcoL7ge-9UP-28" target="CpkmgVg2mhcoL7ge-9UP-47" edge="1">
          <mxGeometry width="50" height="50" relative="1" as="geometry">
            <mxPoint x="650" y="530" as="sourcePoint" />
            <mxPoint x="700" y="480" as="targetPoint" />
            <Array as="points">
              <mxPoint x="710" y="640" />
              <mxPoint x="840" y="640" />
            </Array>
          </mxGeometry>
        </mxCell>
        <mxCell id="CpkmgVg2mhcoL7ge-9UP-64" value="" style="shape=flexArrow;endArrow=classic;html=1;rounded=0;exitX=1;exitY=0.5;exitDx=0;exitDy=0;exitPerimeter=0;" parent="1" source="CpkmgVg2mhcoL7ge-9UP-47" edge="1">
          <mxGeometry width="50" height="50" relative="1" as="geometry">
            <mxPoint x="1330" y="637.62" as="sourcePoint" />
            <mxPoint x="1650" y="638" as="targetPoint" />
            <Array as="points">
              <mxPoint x="1522" y="637.62" />
            </Array>
          </mxGeometry>
        </mxCell>
        <mxCell id="CpkmgVg2mhcoL7ge-9UP-67" value="" style="endArrow=classic;html=1;rounded=0;" parent="1" source="CpkmgVg2mhcoL7ge-9UP-30" target="CpkmgVg2mhcoL7ge-9UP-45" edge="1">
          <mxGeometry width="50" height="50" relative="1" as="geometry">
            <mxPoint x="1310" y="190" as="sourcePoint" />
            <mxPoint x="1360" y="140" as="targetPoint" />
          </mxGeometry>
        </mxCell>
        <mxCell id="CpkmgVg2mhcoL7ge-9UP-68" value="" style="endArrow=classic;html=1;rounded=0;exitX=0.5;exitY=1;exitDx=0;exitDy=0;" parent="1" source="CpkmgVg2mhcoL7ge-9UP-26" target="CpkmgVg2mhcoL7ge-9UP-44" edge="1">
          <mxGeometry width="50" height="50" relative="1" as="geometry">
            <mxPoint x="1310" y="610" as="sourcePoint" />
            <mxPoint x="1360" y="560" as="targetPoint" />
          </mxGeometry>
        </mxCell>
        <mxCell id="CpkmgVg2mhcoL7ge-9UP-71" value="" style="sketch=0;outlineConnect=0;fontColor=#232F3E;gradientColor=none;fillColor=#7AA116;strokeColor=none;dashed=0;verticalLabelPosition=bottom;verticalAlign=top;align=center;html=1;fontSize=12;fontStyle=0;aspect=fixed;pointerEvents=1;shape=mxgraph.aws4.bucket;" parent="1" vertex="1">
          <mxGeometry x="392.80999999999995" y="2877" width="75" height="78" as="geometry" />
        </mxCell>
        <mxCell id="CpkmgVg2mhcoL7ge-9UP-72" value="" style="sketch=0;outlineConnect=0;fontColor=#232F3E;gradientColor=none;fillColor=#7AA116;strokeColor=none;dashed=0;verticalLabelPosition=bottom;verticalAlign=top;align=center;html=1;fontSize=12;fontStyle=0;aspect=fixed;pointerEvents=1;shape=mxgraph.aws4.bucket;" parent="1" vertex="1">
          <mxGeometry x="392.80999999999995" y="2586" width="75" height="78" as="geometry" />
        </mxCell>
        <mxCell id="CpkmgVg2mhcoL7ge-9UP-73" value="" style="sketch=0;outlineConnect=0;fontColor=#232F3E;gradientColor=none;fillColor=#7AA116;strokeColor=none;dashed=0;verticalLabelPosition=bottom;verticalAlign=top;align=center;html=1;fontSize=12;fontStyle=0;aspect=fixed;pointerEvents=1;shape=mxgraph.aws4.bucket;" parent="1" vertex="1">
          <mxGeometry x="-329.4800000000001" y="2915" width="75" height="78" as="geometry" />
        </mxCell>
        <mxCell id="CpkmgVg2mhcoL7ge-9UP-74" value="" style="sketch=0;outlineConnect=0;fontColor=#232F3E;gradientColor=none;fillColor=#7AA116;strokeColor=none;dashed=0;verticalLabelPosition=bottom;verticalAlign=top;align=center;html=1;fontSize=12;fontStyle=0;aspect=fixed;pointerEvents=1;shape=mxgraph.aws4.bucket;" parent="1" vertex="1">
          <mxGeometry x="-457.19000000000005" y="2586" width="75" height="78" as="geometry" />
        </mxCell>
        <mxCell id="CpkmgVg2mhcoL7ge-9UP-75" value="" style="endArrow=classic;html=1;rounded=0;strokeWidth=3;" parent="1" edge="1">
          <mxGeometry width="50" height="50" relative="1" as="geometry">
            <mxPoint x="1056" y="792" as="sourcePoint" />
            <mxPoint x="1056" y="1056" as="targetPoint" />
          </mxGeometry>
        </mxCell>
        <mxCell id="CpkmgVg2mhcoL7ge-9UP-76" value="" style="sketch=0;outlineConnect=0;fontColor=#232F3E;gradientColor=none;fillColor=#7AA116;strokeColor=none;dashed=0;verticalLabelPosition=bottom;verticalAlign=top;align=center;html=1;fontSize=12;fontStyle=0;aspect=fixed;pointerEvents=1;shape=mxgraph.aws4.connector;" parent="1" vertex="1">
          <mxGeometry x="1014.13" y="739" width="78" height="29" as="geometry" />
        </mxCell>
        <mxCell id="CpkmgVg2mhcoL7ge-9UP-77" value="Glue Notebook" style="text;strokeColor=none;align=center;fillColor=none;html=1;verticalAlign=middle;whiteSpace=wrap;rounded=0;fontSize=22;" parent="1" vertex="1">
          <mxGeometry x="982.13" y="693" width="160" height="30" as="geometry" />
        </mxCell>
        <mxCell id="CpkmgVg2mhcoL7ge-9UP-79" value="S3 / Public Raw Data" style="text;strokeColor=none;align=center;fillColor=none;html=1;verticalAlign=middle;whiteSpace=wrap;rounded=0;fontSize=22;" parent="1" vertex="1">
          <mxGeometry x="982.13" y="1170" width="160" height="30" as="geometry" />
        </mxCell>
        <mxCell id="CpkmgVg2mhcoL7ge-9UP-81" value="Transient Zone / Temp Zone" style="text;strokeColor=none;align=center;fillColor=none;html=1;verticalAlign=middle;whiteSpace=wrap;rounded=0;fontSize=22;" parent="1" vertex="1">
          <mxGeometry x="-436.97999999999996" y="3066" width="290" height="30" as="geometry" />
        </mxCell>
        <mxCell id="CpkmgVg2mhcoL7ge-9UP-82" value="Analytics Sandbox" style="text;strokeColor=none;align=center;fillColor=none;html=1;verticalAlign=middle;whiteSpace=wrap;rounded=0;fontSize=22;" parent="1" vertex="1">
          <mxGeometry x="292.80999999999995" y="3036" width="290" height="30" as="geometry" />
        </mxCell>
        <mxCell id="CpkmgVg2mhcoL7ge-9UP-83" value="Raw Data / Staging Zone" style="text;strokeColor=none;align=center;fillColor=none;html=1;verticalAlign=middle;whiteSpace=wrap;rounded=0;fontSize=22;" parent="1" vertex="1">
          <mxGeometry x="-457.19000000000005" y="2768" width="290" height="30" as="geometry" />
        </mxCell>
        <mxCell id="CpkmgVg2mhcoL7ge-9UP-84" value="Curated Data Zone" style="text;strokeColor=none;align=center;fillColor=none;html=1;verticalAlign=middle;whiteSpace=wrap;rounded=0;fontSize=22;" parent="1" vertex="1">
          <mxGeometry x="285.30999999999995" y="2716" width="290" height="30" as="geometry" />
        </mxCell>
        <mxCell id="CpkmgVg2mhcoL7ge-9UP-87" value="&lt;span style=&quot;font-size: 22px;&quot;&gt;External Data Source&lt;/span&gt;" style="text;strokeColor=none;align=center;fillColor=none;html=1;verticalAlign=middle;whiteSpace=wrap;rounded=0;" parent="1" vertex="1">
          <mxGeometry x="-901.9999999999999" y="1463" width="170" height="30" as="geometry" />
        </mxCell>
        <mxCell id="CpkmgVg2mhcoL7ge-9UP-88" value="" style="shape=flexArrow;endArrow=classic;html=1;rounded=0;entryX=0;entryY=0.5;entryDx=0;entryDy=0;entryPerimeter=0;exitX=1;exitY=0.5;exitDx=0;exitDy=0;" parent="1" source="CpkmgVg2mhcoL7ge-9UP-87" target="CpkmgVg2mhcoL7ge-9UP-56" edge="1">
          <mxGeometry width="50" height="50" relative="1" as="geometry">
            <mxPoint x="1294" y="1547.79" as="sourcePoint" />
            <mxPoint x="1803" y="1547.79" as="targetPoint" />
            <Array as="points" />
          </mxGeometry>
        </mxCell>
        <mxCell id="CpkmgVg2mhcoL7ge-9UP-89" value="" style="shape=flexArrow;endArrow=classic;html=1;rounded=0;exitX=1;exitY=0.5;exitDx=0;exitDy=0;exitPerimeter=0;strokeWidth=2;" parent="1" source="CpkmgVg2mhcoL7ge-9UP-60" edge="1">
          <mxGeometry width="50" height="50" relative="1" as="geometry">
            <mxPoint x="2023" y="1533" as="sourcePoint" />
            <mxPoint x="2486" y="1484" as="targetPoint" />
            <Array as="points" />
          </mxGeometry>
        </mxCell>
        <mxCell id="CpkmgVg2mhcoL7ge-9UP-91" value="Data Lake / Batch Layer" style="text;strokeColor=none;align=center;fillColor=none;html=1;verticalAlign=middle;whiteSpace=wrap;rounded=0;fontSize=40;fontColor=#3399FF;" parent="1" vertex="1">
          <mxGeometry x="1382" y="2030" width="1167.87" height="50" as="geometry" />
        </mxCell>
        <mxCell id="CpkmgVg2mhcoL7ge-9UP-102" value="S3 / Curated Data Zone" style="text;strokeColor=none;align=center;fillColor=none;html=1;verticalAlign=middle;whiteSpace=wrap;rounded=0;fontSize=22;" parent="1" vertex="1">
          <mxGeometry x="2442.44" y="1140" width="240" height="30" as="geometry" />
        </mxCell>
        <mxCell id="CpkmgVg2mhcoL7ge-9UP-104" value="" style="endArrow=classic;html=1;rounded=0;strokeWidth=3;" parent="1" edge="1">
          <mxGeometry width="50" height="50" relative="1" as="geometry">
            <mxPoint x="2549" y="828" as="sourcePoint" />
            <mxPoint x="2549" y="1034" as="targetPoint" />
          </mxGeometry>
        </mxCell>
        <mxCell id="CpkmgVg2mhcoL7ge-9UP-105" value="" style="sketch=0;points=[[0,0,0],[0.25,0,0],[0.5,0,0],[0.75,0,0],[1,0,0],[0,1,0],[0.25,1,0],[0.5,1,0],[0.75,1,0],[1,1,0],[0,0.25,0],[0,0.5,0],[0,0.75,0],[1,0.25,0],[1,0.5,0],[1,0.75,0]];outlineConnect=0;fontColor=#232F3E;fillColor=#8C4FFF;strokeColor=#ffffff;dashed=0;verticalLabelPosition=bottom;verticalAlign=top;align=center;html=1;fontSize=12;fontStyle=0;aspect=fixed;shape=mxgraph.aws4.resourceIcon;resIcon=mxgraph.aws4.quicksight;" parent="1" vertex="1">
          <mxGeometry x="-544" y="530" width="78" height="78" as="geometry" />
        </mxCell>
        <mxCell id="CpkmgVg2mhcoL7ge-9UP-106" value="Kinesis" style="text;strokeColor=none;align=center;fillColor=none;html=1;verticalAlign=middle;whiteSpace=wrap;rounded=0;fontSize=22;" parent="1" vertex="1">
          <mxGeometry x="426.8099999999997" y="1389" width="160" height="40" as="geometry" />
        </mxCell>
        <mxCell id="CpkmgVg2mhcoL7ge-9UP-107" value="Kinesis Firehose" style="text;strokeColor=none;align=center;fillColor=none;html=1;verticalAlign=middle;whiteSpace=wrap;rounded=0;fontSize=22;" parent="1" vertex="1">
          <mxGeometry x="-825" y="220" width="160" height="40" as="geometry" />
        </mxCell>
        <mxCell id="CpkmgVg2mhcoL7ge-9UP-109" value="Quicksight / Streaming Dashboard" style="text;strokeColor=none;align=center;fillColor=none;html=1;verticalAlign=middle;whiteSpace=wrap;rounded=0;fontSize=22;" parent="1" vertex="1">
          <mxGeometry x="-585" y="646.62" width="160" height="40" as="geometry" />
        </mxCell>
        <mxCell id="CpkmgVg2mhcoL7ge-9UP-111" value="" style="shape=flexArrow;endArrow=classic;html=1;rounded=0;exitX=1;exitY=0.5;exitDx=0;exitDy=0;exitPerimeter=0;" parent="1" source="CpkmgVg2mhcoL7ge-9UP-61" edge="1">
          <mxGeometry width="50" height="50" relative="1" as="geometry">
            <mxPoint x="-936" y="329" as="sourcePoint" />
            <mxPoint x="-544" y="318.9999999999991" as="targetPoint" />
          </mxGeometry>
        </mxCell>
        <mxCell id="CpkmgVg2mhcoL7ge-9UP-112" value="" style="shape=flexArrow;endArrow=classic;html=1;rounded=0;entryX=0.5;entryY=0;entryDx=0;entryDy=0;entryPerimeter=0;" parent="1" target="CpkmgVg2mhcoL7ge-9UP-105" edge="1">
          <mxGeometry width="50" height="50" relative="1" as="geometry">
            <mxPoint x="-505" y="374" as="sourcePoint" />
            <mxPoint x="-534" y="329" as="targetPoint" />
          </mxGeometry>
        </mxCell>
        <mxCell id="CpkmgVg2mhcoL7ge-9UP-113" value="" style="shape=flexArrow;endArrow=classic;html=1;rounded=0;entryX=0;entryY=0.25;entryDx=0;entryDy=0;exitX=1;exitY=0.5;exitDx=0;exitDy=0;exitPerimeter=0;" parent="1" target="CpkmgVg2mhcoL7ge-9UP-18" edge="1">
          <mxGeometry width="50" height="50" relative="1" as="geometry">
            <mxPoint x="-466" y="318.9999999999991" as="sourcePoint" />
            <mxPoint x="-231" y="570" as="targetPoint" />
          </mxGeometry>
        </mxCell>
        <mxCell id="CpkmgVg2mhcoL7ge-9UP-114" value="Data Streaming / Speed Layer" style="text;strokeColor=none;align=center;fillColor=none;html=1;verticalAlign=middle;whiteSpace=wrap;rounded=0;fontSize=40;labelBackgroundColor=none;fontColor=#7EA6E0;" parent="1" vertex="1">
          <mxGeometry x="-1054.06" y="920" width="917.87" height="50" as="geometry" />
        </mxCell>
        <mxCell id="CpkmgVg2mhcoL7ge-9UP-116" value="" style="sketch=0;points=[[0,0,0],[0.25,0,0],[0.5,0,0],[0.75,0,0],[1,0,0],[0,1,0],[0.25,1,0],[0.5,1,0],[0.75,1,0],[1,1,0],[0,0.25,0],[0,0.5,0],[0,0.75,0],[1,0.25,0],[1,0.5,0],[1,0.75,0]];outlineConnect=0;fontColor=#232F3E;fillColor=#01A88D;strokeColor=#ffffff;dashed=0;verticalLabelPosition=bottom;verticalAlign=top;align=center;html=1;fontSize=12;fontStyle=0;aspect=fixed;shape=mxgraph.aws4.resourceIcon;resIcon=mxgraph.aws4.sagemaker;" parent="1" vertex="1">
          <mxGeometry x="3747" y="1062" width="78" height="78" as="geometry" />
        </mxCell>
        <mxCell id="CpkmgVg2mhcoL7ge-9UP-118" value="Sagemaker" style="text;strokeColor=none;align=center;fillColor=none;html=1;verticalAlign=middle;whiteSpace=wrap;rounded=0;fontSize=22;" parent="1" vertex="1">
          <mxGeometry x="3666" y="1159" width="240" height="30" as="geometry" />
        </mxCell>
        <mxCell id="CpkmgVg2mhcoL7ge-9UP-119" value="" style="sketch=0;points=[[0,0,0],[0.25,0,0],[0.5,0,0],[0.75,0,0],[1,0,0],[0,1,0],[0.25,1,0],[0.5,1,0],[0.75,1,0],[1,1,0],[0,0.25,0],[0,0.5,0],[0,0.75,0],[1,0.25,0],[1,0.5,0],[1,0.75,0]];outlineConnect=0;fontColor=#232F3E;fillColor=#8C4FFF;strokeColor=#ffffff;dashed=0;verticalLabelPosition=bottom;verticalAlign=top;align=center;html=1;fontSize=12;fontStyle=0;aspect=fixed;shape=mxgraph.aws4.resourceIcon;resIcon=mxgraph.aws4.quicksight;" parent="1" vertex="1">
          <mxGeometry x="4223.83" y="1276" width="78" height="78" as="geometry" />
        </mxCell>
        <mxCell id="CpkmgVg2mhcoL7ge-9UP-120" value="" style="shape=flexArrow;endArrow=classic;html=1;rounded=0;entryX=0;entryY=0;entryDx=0;entryDy=0;entryPerimeter=0;" parent="1" target="CpkmgVg2mhcoL7ge-9UP-119" edge="1">
          <mxGeometry width="50" height="50" relative="1" as="geometry">
            <mxPoint x="3851.83" y="1100.23" as="sourcePoint" />
            <mxPoint x="4203.83" y="1100.23" as="targetPoint" />
            <Array as="points" />
          </mxGeometry>
        </mxCell>
        <mxCell id="CpkmgVg2mhcoL7ge-9UP-121" value="Quicksight" style="text;strokeColor=none;align=center;fillColor=none;html=1;verticalAlign=middle;whiteSpace=wrap;rounded=0;fontSize=22;" parent="1" vertex="1">
          <mxGeometry x="4182.83" y="1159" width="160" height="30" as="geometry" />
        </mxCell>
        <mxCell id="CpkmgVg2mhcoL7ge-9UP-123" value="" style="sketch=0;points=[[0,0,0],[0.25,0,0],[0.5,0,0],[0.75,0,0],[1,0,0],[0,1,0],[0.25,1,0],[0.5,1,0],[0.75,1,0],[1,1,0],[0,0.25,0],[0,0.5,0],[0,0.75,0],[1,0.25,0],[1,0.5,0],[1,0.75,0]];outlineConnect=0;fontColor=#232F3E;fillColor=#E7157B;strokeColor=#ffffff;dashed=0;verticalLabelPosition=bottom;verticalAlign=top;align=center;html=1;fontSize=12;fontStyle=0;aspect=fixed;shape=mxgraph.aws4.resourceIcon;resIcon=mxgraph.aws4.sns;" parent="1" vertex="1">
          <mxGeometry x="3737" y="90" width="78" height="78" as="geometry" />
        </mxCell>
        <mxCell id="CpkmgVg2mhcoL7ge-9UP-124" value="" style="sketch=0;points=[[0,0,0],[0.25,0,0],[0.5,0,0],[0.75,0,0],[1,0,0],[0,1,0],[0.25,1,0],[0.5,1,0],[0.75,1,0],[1,1,0],[0,0.25,0],[0,0.5,0],[0,0.75,0],[1,0.25,0],[1,0.5,0],[1,0.75,0]];outlineConnect=0;fontColor=#232F3E;fillColor=#E7157B;strokeColor=#ffffff;dashed=0;verticalLabelPosition=bottom;verticalAlign=top;align=center;html=1;fontSize=12;fontStyle=0;aspect=fixed;shape=mxgraph.aws4.resourceIcon;resIcon=mxgraph.aws4.sns;" parent="1" vertex="1">
          <mxGeometry x="4217.83" y="1742.75" width="89" height="89" as="geometry" />
        </mxCell>
        <mxCell id="CpkmgVg2mhcoL7ge-9UP-125" value="" style="shape=flexArrow;endArrow=classic;html=1;rounded=0;" parent="1" source="zAQJWHDo3wseyvUyDu6P-46" target="CpkmgVg2mhcoL7ge-9UP-123" edge="1">
          <mxGeometry width="50" height="50" relative="1" as="geometry">
            <mxPoint x="3776" y="526" as="sourcePoint" />
            <mxPoint x="3786" y="866" as="targetPoint" />
          </mxGeometry>
        </mxCell>
        <mxCell id="CpkmgVg2mhcoL7ge-9UP-126" value="SNS" style="text;strokeColor=none;align=center;fillColor=none;html=1;verticalAlign=middle;whiteSpace=wrap;rounded=0;fontSize=22;" parent="1" vertex="1">
          <mxGeometry x="3696" y="50" width="160" height="40" as="geometry" />
        </mxCell>
        <mxCell id="CpkmgVg2mhcoL7ge-9UP-127" value="SNS" style="text;strokeColor=none;align=center;fillColor=none;html=1;verticalAlign=middle;whiteSpace=wrap;rounded=0;fontSize=22;" parent="1" vertex="1">
          <mxGeometry x="4175.33" y="1875.75" width="160" height="40" as="geometry" />
        </mxCell>
        <mxCell id="CpkmgVg2mhcoL7ge-9UP-128" value="" style="shape=flexArrow;endArrow=classic;html=1;rounded=0;exitX=0.5;exitY=1;exitDx=0;exitDy=0;exitPerimeter=0;" parent="1" source="zAQJWHDo3wseyvUyDu6P-61" edge="1">
          <mxGeometry width="50" height="50" relative="1" as="geometry">
            <mxPoint x="4255.9400000000005" y="1426" as="sourcePoint" />
            <mxPoint x="4256.83" y="1731.75" as="targetPoint" />
          </mxGeometry>
        </mxCell>
        <mxCell id="zAQJWHDo3wseyvUyDu6P-1" value="" style="points=[];aspect=fixed;html=1;align=center;shadow=0;dashed=0;fillColor=#FF6A00;strokeColor=none;shape=mxgraph.alibaba_cloud.dms_data_management_service;" parent="1" vertex="1">
          <mxGeometry x="399.31" y="220" width="45.9" height="47.400000000000006" as="geometry" />
        </mxCell>
        <mxCell id="zAQJWHDo3wseyvUyDu6P-2" value="DMS&lt;div&gt;(Optional)&lt;/div&gt;" style="text;strokeColor=none;align=center;fillColor=none;html=1;verticalAlign=middle;whiteSpace=wrap;rounded=0;fontSize=22;" parent="1" vertex="1">
          <mxGeometry x="383.13" y="300" width="78.26" height="30" as="geometry" />
        </mxCell>
        <mxCell id="zAQJWHDo3wseyvUyDu6P-4" value="" style="sketch=0;outlineConnect=0;fontColor=#232F3E;gradientColor=none;fillColor=#7AA116;strokeColor=none;dashed=0;verticalLabelPosition=bottom;verticalAlign=top;align=center;html=1;fontSize=12;fontStyle=0;aspect=fixed;pointerEvents=1;shape=mxgraph.aws4.bucket;" parent="1" vertex="1">
          <mxGeometry x="3741.83" y="589.12" width="75" height="78" as="geometry" />
        </mxCell>
        <mxCell id="zAQJWHDo3wseyvUyDu6P-5" value="Analytics Sandbox" style="text;strokeColor=none;align=center;fillColor=none;html=1;verticalAlign=middle;whiteSpace=wrap;rounded=0;fontSize=22;" parent="1" vertex="1">
          <mxGeometry x="3635.83" y="545" width="290" height="30" as="geometry" />
        </mxCell>
        <mxCell id="zAQJWHDo3wseyvUyDu6P-6" value="" style="sketch=0;outlineConnect=0;fontColor=#232F3E;gradientColor=none;fillColor=#7AA116;strokeColor=none;dashed=0;verticalLabelPosition=bottom;verticalAlign=top;align=center;html=1;fontSize=12;fontStyle=0;aspect=fixed;pointerEvents=1;shape=mxgraph.aws4.bucket;" parent="1" vertex="1">
          <mxGeometry x="2511.8400000000006" y="1062" width="75" height="78" as="geometry" />
        </mxCell>
        <mxCell id="zAQJWHDo3wseyvUyDu6P-7" value="" style="sketch=0;outlineConnect=0;fontColor=#232F3E;gradientColor=none;fillColor=#7AA116;strokeColor=none;dashed=0;verticalLabelPosition=bottom;verticalAlign=top;align=center;html=1;fontSize=12;fontStyle=0;aspect=fixed;pointerEvents=1;shape=mxgraph.aws4.bucket;" parent="1" vertex="1">
          <mxGeometry x="1024.63" y="1062" width="75" height="78" as="geometry" />
        </mxCell>
        <mxCell id="zAQJWHDo3wseyvUyDu6P-8" value="" style="sketch=0;outlineConnect=0;fontColor=#232F3E;gradientColor=none;fillColor=#7AA116;strokeColor=none;dashed=0;verticalLabelPosition=bottom;verticalAlign=top;align=center;html=1;fontSize=12;fontStyle=0;aspect=fixed;pointerEvents=1;shape=mxgraph.aws4.bucket;" parent="1" vertex="1">
          <mxGeometry x="2511.84" y="1446" width="75" height="78" as="geometry" />
        </mxCell>
        <mxCell id="zAQJWHDo3wseyvUyDu6P-9" value="Transient Zone / Temp Zone" style="text;strokeColor=none;align=center;fillColor=none;html=1;verticalAlign=middle;whiteSpace=wrap;rounded=0;fontSize=22;" parent="1" vertex="1">
          <mxGeometry x="2417.44" y="1545.75" width="290" height="30" as="geometry" />
        </mxCell>
        <mxCell id="zAQJWHDo3wseyvUyDu6P-10" value="" style="endArrow=classic;html=1;rounded=0;strokeWidth=4;" parent="1" edge="1">
          <mxGeometry width="50" height="50" relative="1" as="geometry">
            <mxPoint x="2596" y="1496" as="sourcePoint" />
            <mxPoint x="3696" y="1496" as="targetPoint" />
          </mxGeometry>
        </mxCell>
        <mxCell id="zAQJWHDo3wseyvUyDu6P-12" value="&lt;font style=&quot;font-size: 36px;&quot; color=&quot;#66b2ff&quot;&gt;&amp;nbsp;Streaming (Optional)&lt;/font&gt;" style="text;strokeColor=none;align=center;fillColor=none;html=1;verticalAlign=middle;whiteSpace=wrap;rounded=0;fontSize=33;" parent="1" vertex="1">
          <mxGeometry x="-135.59000000000026" y="1728.25" width="462" height="44" as="geometry" />
        </mxCell>
        <mxCell id="zAQJWHDo3wseyvUyDu6P-14" value="" style="shape=flexArrow;endArrow=classic;html=1;rounded=0;" parent="1" source="zAQJWHDo3wseyvUyDu6P-4" edge="1">
          <mxGeometry width="50" height="50" relative="1" as="geometry">
            <mxPoint x="3372.83" y="651" as="sourcePoint" />
            <mxPoint x="3784" y="1056" as="targetPoint" />
          </mxGeometry>
        </mxCell>
        <mxCell id="zAQJWHDo3wseyvUyDu6P-17" value="" style="sketch=0;outlineConnect=0;fontColor=#232F3E;gradientColor=none;fillColor=#7AA116;strokeColor=none;dashed=0;verticalLabelPosition=bottom;verticalAlign=top;align=center;html=1;fontSize=12;fontStyle=0;aspect=fixed;pointerEvents=1;shape=mxgraph.aws4.bucket;" parent="1" vertex="1">
          <mxGeometry x="-247.19000000000005" y="2586" width="75" height="78" as="geometry" />
        </mxCell>
        <mxCell id="zAQJWHDo3wseyvUyDu6P-18" value="Private" style="text;strokeColor=none;align=center;fillColor=none;html=1;verticalAlign=middle;whiteSpace=wrap;rounded=0;fontSize=22;" parent="1" vertex="1">
          <mxGeometry x="-484.38000000000005" y="2686" width="139.19" height="30" as="geometry" />
        </mxCell>
        <mxCell id="zAQJWHDo3wseyvUyDu6P-19" value="Public" style="text;strokeColor=none;align=center;fillColor=none;html=1;verticalAlign=middle;whiteSpace=wrap;rounded=0;fontSize=22;" parent="1" vertex="1">
          <mxGeometry x="-287.19000000000005" y="2686" width="139.19" height="30" as="geometry" />
        </mxCell>
        <mxCell id="zAQJWHDo3wseyvUyDu6P-20" value="" style="shape=flexArrow;endArrow=classic;html=1;rounded=0;" parent="1" edge="1">
          <mxGeometry width="50" height="50" relative="1" as="geometry">
            <mxPoint x="-1326" y="-141.75" as="sourcePoint" />
            <mxPoint x="-1276" y="-191.75" as="targetPoint" />
          </mxGeometry>
        </mxCell>
        <mxCell id="zAQJWHDo3wseyvUyDu6P-22" value="Move into next phase" style="text;strokeColor=none;align=center;fillColor=none;html=1;verticalAlign=middle;whiteSpace=wrap;rounded=0;fontSize=22;" parent="1" vertex="1">
          <mxGeometry x="-1386" y="-98.75" width="139.19" height="30" as="geometry" />
        </mxCell>
        <mxCell id="zAQJWHDo3wseyvUyDu6P-27" value="" style="endArrow=classic;html=1;rounded=0;" parent="1" edge="1">
          <mxGeometry width="50" height="50" relative="1" as="geometry">
            <mxPoint x="-1092" y="-125.75" as="sourcePoint" />
            <mxPoint x="-1092" y="-198" as="targetPoint" />
          </mxGeometry>
        </mxCell>
        <mxCell id="zAQJWHDo3wseyvUyDu6P-28" value="Extract / Save" style="text;strokeColor=none;align=center;fillColor=none;html=1;verticalAlign=middle;whiteSpace=wrap;rounded=0;fontSize=22;" parent="1" vertex="1">
          <mxGeometry x="-1165.19" y="-98.75" width="139.19" height="30" as="geometry" />
        </mxCell>
        <mxCell id="zAQJWHDo3wseyvUyDu6P-30" value="EC2" style="text;strokeColor=none;align=center;fillColor=none;html=1;verticalAlign=middle;whiteSpace=wrap;rounded=0;fontSize=22;" parent="1" vertex="1">
          <mxGeometry x="140" y="545" width="160" height="40" as="geometry" />
        </mxCell>
        <mxCell id="zAQJWHDo3wseyvUyDu6P-32" value="Existing Dat&lt;span style=&quot;color: rgba(0, 0, 0, 0); font-family: monospace; font-size: 0px; text-align: start; text-wrap-mode: nowrap;&quot;&gt;%3CmxGraphModel%3E%3Croot%3E%3CmxCell%20id%3D%220%22%2F%3E%3CmxCell%20id%3D%221%22%20parent%3D%220%22%2F%3E%3CmxCell%20id%3D%222%22%20value%3D%22Glue%20Notebook%22%20style%3D%22text%3BstrokeColor%3Dnone%3Balign%3Dcenter%3BfillColor%3Dnone%3Bhtml%3D1%3BverticalAlign%3Dmiddle%3BwhiteSpace%3Dwrap%3Brounded%3D0%3BfontSize%3D22%3B%22%20vertex%3D%221%22%20parent%3D%221%22%3E%3CmxGeometry%20x%3D%22982.13%22%20y%3D%22480%22%20width%3D%22160%22%20height%3D%2230%22%20as%3D%22geometry%22%2F%3E%3C%2FmxCell%3E%3C%2Froot%3E%3C%2FmxGraphModel%3E&lt;/span&gt;a&lt;span style=&quot;color: rgba(0, 0, 0, 0); font-family: monospace; font-size: 0px; text-align: start; text-wrap-mode: nowrap;&quot;&gt;%3CmxGraphModel%3E%3Croot%3E%3CmxCell%20id%3D%220%22%2F%3E%3CmxCell%20id%3D%221%22%20parent%3D%220%22%2F%3E%3CmxCell%20id%3D%222%22%20value%3D%22Glue%20Notebook%22%20style%3D%22text%3BstrokeColor%3Dnone%3Balign%3Dcenter%3BfillColor%3Dnone%3Bhtml%3D1%3BverticalAlign%3Dmiddle%3BwhiteSpace%3Dwrap%3Brounded%3D0%3BfontSize%3D22%3B%22%20vertex%3D%221%22%20parent%3D%221%22%3E%3CmxGeometry%20x%3D%22982.13%22%20y%3D%22480%22%20width%3D%22160%22%20height%3D%2230%22%20as%3D%22geometry%22%2F%3E%3C%2FmxCell%3E%3C%2Froot%3E%3C%2FmxGraphModel%3E&lt;/span&gt;" style="text;strokeColor=none;align=center;fillColor=none;html=1;verticalAlign=middle;whiteSpace=wrap;rounded=0;fontSize=22;" parent="1" vertex="1">
          <mxGeometry x="973.13" y="585" width="160" height="30" as="geometry" />
        </mxCell>
        <mxCell id="zAQJWHDo3wseyvUyDu6P-33" value="Incoming Dat&lt;span style=&quot;color: rgba(0, 0, 0, 0); font-family: monospace; font-size: 0px; text-align: start; text-wrap-mode: nowrap;&quot;&gt;%3CmxGraphModel%3E%3Croot%3E%3CmxCell%20id%3D%220%22%2F%3E%3CmxCell%20id%3D%221%22%20parent%3D%220%22%2F%3E%3CmxCell%20id%3D%222%22%20value%3D%22Glue%20Notebook%22%20style%3D%22text%3BstrokeColor%3Dnone%3Balign%3Dcenter%3BfillColor%3Dnone%3Bhtml%3D1%3BverticalAlign%3Dmiddle%3BwhiteSpace%3Dwrap%3Brounded%3D0%3BfontSize%3D22%3B%22%20vertex%3D%221%22%20parent%3D%221%22%3E%3CmxGeometry%20x%3D%22982.13%22%20y%3D%22480%22%20width%3D%22160%22%20height%3D%2230%22%20as%3D%22geometry%22%2F%3E%3C%2FmxCell%3E%3C%2Froot%3E%3C%2FmxGraphModel%3E&lt;/span&gt;a&lt;span style=&quot;color: rgba(0, 0, 0, 0); font-family: monospace; font-size: 0px; text-align: start; text-wrap-mode: nowrap;&quot;&gt;%3CmxGraphModel%3E%3Croot%3E%3CmxCell%20id%3D%220%22%2F%3E%3CmxCell%20id%3D%221%22%20parent%3D%220%22%2F%3E%3CmxCell%20id%3D%222%22%20value%3D%22Glue%20Notebook%22%20style%3D%22text%3BstrokeColor%3Dnone%3Balign%3Dcenter%3BfillColor%3Dnone%3Bhtml%3D1%3BverticalAlign%3Dmiddle%3BwhiteSpace%3Dwrap%3Brounded%3D0%3BfontSize%3D22%3B%22%20vertex%3D%221%22%20parent%3D%221%22%3E%3CmxGeometry%20x%3D%22982.13%22%20y%3D%22480%22%20width%3D%22160%22%20height%3D%2230%22%20as%3D%22geometry%22%2F%3E%3C%2FmxCell%3E%3C%2Froot%3E%3C%2FmxGraphModel%3E&lt;/span&gt;" style="text;strokeColor=none;align=center;fillColor=none;html=1;verticalAlign=middle;whiteSpace=wrap;rounded=0;fontSize=22;" parent="1" vertex="1">
          <mxGeometry x="-1072" y="220" width="160" height="30" as="geometry" />
        </mxCell>
        <mxCell id="zAQJWHDo3wseyvUyDu6P-35" value="" style="shape=flexArrow;endArrow=classic;html=1;rounded=0;" parent="1" target="CpkmgVg2mhcoL7ge-9UP-61" edge="1">
          <mxGeometry width="50" height="50" relative="1" as="geometry">
            <mxPoint x="-937" y="319" as="sourcePoint" />
            <mxPoint x="-522" y="341" as="targetPoint" />
          </mxGeometry>
        </mxCell>
        <mxCell id="zAQJWHDo3wseyvUyDu6P-36" value="S3 / Private Raw Data" style="text;strokeColor=none;align=center;fillColor=none;html=1;verticalAlign=middle;whiteSpace=wrap;rounded=0;fontSize=22;" parent="1" vertex="1">
          <mxGeometry x="-823.5" y="655" width="160" height="30" as="geometry" />
        </mxCell>
        <mxCell id="zAQJWHDo3wseyvUyDu6P-37" value="" style="sketch=0;outlineConnect=0;fontColor=#232F3E;gradientColor=none;fillColor=#7AA116;strokeColor=none;dashed=0;verticalLabelPosition=bottom;verticalAlign=top;align=center;html=1;fontSize=12;fontStyle=0;aspect=fixed;pointerEvents=1;shape=mxgraph.aws4.bucket;" parent="1" vertex="1">
          <mxGeometry x="-780.9999999999999" y="547" width="75" height="78" as="geometry" />
        </mxCell>
        <mxCell id="zAQJWHDo3wseyvUyDu6P-38" value="" style="shape=flexArrow;endArrow=classic;html=1;rounded=0;entryX=0.5;entryY=0;entryDx=0;entryDy=0;entryPerimeter=0;" parent="1" edge="1">
          <mxGeometry width="50" height="50" relative="1" as="geometry">
            <mxPoint x="-745.53" y="369" as="sourcePoint" />
            <mxPoint x="-745.53" y="525" as="targetPoint" />
          </mxGeometry>
        </mxCell>
        <mxCell id="zAQJWHDo3wseyvUyDu6P-39" value="&lt;font style=&quot;font-size: 22px;&quot;&gt;Avoid Hostile Attack / Meaningless Behavior&lt;/font&gt;" style="text;strokeColor=none;align=center;fillColor=none;html=1;verticalAlign=middle;whiteSpace=wrap;rounded=0;" parent="1" vertex="1">
          <mxGeometry x="-341" y="149" width="204.81" height="154" as="geometry" />
        </mxCell>
        <mxCell id="zAQJWHDo3wseyvUyDu6P-40" value="" style="sketch=0;aspect=fixed;pointerEvents=1;shadow=0;dashed=0;html=1;strokeColor=none;labelPosition=center;verticalLabelPosition=bottom;verticalAlign=top;align=center;fillColor=#00188D;shape=mxgraph.mscae.enterprise.filter" parent="1" vertex="1">
          <mxGeometry x="395.21" y="400" width="50" height="45" as="geometry" />
        </mxCell>
        <mxCell id="zAQJWHDo3wseyvUyDu6P-41" value="Primary&amp;nbsp;&lt;div&gt;Database&lt;span style=&quot;color: rgba(0, 0, 0, 0); font-family: monospace; font-size: 0px; text-align: start; text-wrap-mode: nowrap; background-color: initial;&quot;&gt;%3CmxGraphModel%3E%3Croot%3E%3CmxCell%20id%3D%220%22%2F%3E%3CmxCell%20id%3D%221%22%20parent%3D%220%22%2F%3E%3CmxCell%20id%3D%222%22%20value%3D%22Kinesis%20%2F%20Analytics%22%20style%3D%22text%3BstrokeColor%3Dnone%3Balign%3Dcenter%3BfillColor%3Dnone%3Bhtml%3D1%3BverticalAlign%3Dmiddle%3BwhiteSpace%3Dwrap%3Brounded%3D0%3BfontSize%3D22%3B%22%20vertex%3D%221%22%20parent%3D%221%22%3E%3CmxGeometry%20x%3D%22-330%22%20y%3D%22220%22%20width%3D%22160%22%20height%3D%2240%22%20as%3D%22geometry%22%2F%3E%3C%2FmxCell%3E%3C%2Froot%3E%3C%2FmxGraphModel%3E&lt;/span&gt;&lt;/div&gt;" style="text;strokeColor=none;align=center;fillColor=none;html=1;verticalAlign=middle;whiteSpace=wrap;rounded=0;fontSize=22;" parent="1" vertex="1">
          <mxGeometry x="140" y="310" width="160" height="40" as="geometry" />
        </mxCell>
        <mxCell id="zAQJWHDo3wseyvUyDu6P-42" value="Read&amp;nbsp;&lt;div&gt;Database&lt;span style=&quot;color: rgba(0, 0, 0, 0); font-family: monospace; font-size: 0px; text-align: start; text-wrap-mode: nowrap; background-color: initial;&quot;&gt;%3CmxGraphModel%3E%3Croot%3E%3CmxCell%20id%3D%220%22%2F%3E%3CmxCell%20id%3D%221%22%20parent%3D%220%22%2F%3E%3CmxCell%20id%3D%222%22%20value%3D%22Kinesis%20%2F%20Analytics%22%20style%3D%22text%3BstrokeColor%3Dnone%3Balign%3Dcenter%3BfillColor%3Dnone%3Bhtml%3D1%3BverticalAlign%3Dmiddle%3BwhiteSpace%3Dwrap%3Brounded%3D0%3BfontSize%3D22%3B%22%20vertex%3D%221%22%20parent%3D%221%22%3E%3CmxGeometry%20x%3D%22-330%22%20y%3D%22220%22%20width%3D%22160%22%20height%3D%2240%22%20as%3D%22geometry%22%2F%3E%3C%2FmxCell%3E%3C%2Froot%3E%3C%2FmxGraphModel%3E&lt;/span&gt;&lt;/div&gt;" style="text;strokeColor=none;align=center;fillColor=none;html=1;verticalAlign=middle;whiteSpace=wrap;rounded=0;fontSize=22;" parent="1" vertex="1">
          <mxGeometry x="530" y="440" width="160" height="40" as="geometry" />
        </mxCell>
        <mxCell id="zAQJWHDo3wseyvUyDu6P-43" value="&lt;font style=&quot;font-size: 20px;&quot;&gt;Python Script&lt;/font&gt;" style="text;strokeColor=none;align=center;fillColor=none;html=1;verticalAlign=middle;whiteSpace=wrap;rounded=0;" parent="1" vertex="1">
          <mxGeometry x="395" y="480" width="60" height="30" as="geometry" />
        </mxCell>
        <mxCell id="zAQJWHDo3wseyvUyDu6P-44" value="&lt;font style=&quot;font-size: 22px;&quot;&gt;Unmuted 1:1&lt;/font&gt;&lt;div&gt;&lt;font style=&quot;font-size: 22px;&quot;&gt;Audit&lt;/font&gt;&lt;/div&gt;" style="text;strokeColor=none;align=center;fillColor=none;html=1;verticalAlign=middle;whiteSpace=wrap;rounded=0;" parent="1" vertex="1">
          <mxGeometry x="-775" y="760" width="60" height="30" as="geometry" />
        </mxCell>
        <mxCell id="zAQJWHDo3wseyvUyDu6P-47" value="" style="shape=flexArrow;endArrow=classic;html=1;rounded=0;" parent="1" target="zAQJWHDo3wseyvUyDu6P-46" edge="1">
          <mxGeometry width="50" height="50" relative="1" as="geometry">
            <mxPoint x="3776" y="526" as="sourcePoint" />
            <mxPoint x="3776" y="294" as="targetPoint" />
          </mxGeometry>
        </mxCell>
        <mxCell id="zAQJWHDo3wseyvUyDu6P-46" value="" style="sketch=0;points=[[0,0,0],[0.25,0,0],[0.5,0,0],[0.75,0,0],[1,0,0],[0,1,0],[0.25,1,0],[0.5,1,0],[0.75,1,0],[1,1,0],[0,0.25,0],[0,0.5,0],[0,0.75,0],[1,0.25,0],[1,0.5,0],[1,0.75,0]];outlineConnect=0;fontColor=#232F3E;fillColor=#ED7100;strokeColor=#ffffff;dashed=0;verticalLabelPosition=bottom;verticalAlign=top;align=center;html=1;fontSize=12;fontStyle=0;aspect=fixed;shape=mxgraph.aws4.resourceIcon;resIcon=mxgraph.aws4.lambda;" parent="1" vertex="1">
          <mxGeometry x="3737" y="303" width="78" height="78" as="geometry" />
        </mxCell>
        <mxCell id="zAQJWHDo3wseyvUyDu6P-49" value="&lt;div&gt;Resale&lt;/div&gt;Coupon (optioanl)" style="text;strokeColor=none;align=center;fillColor=none;html=1;verticalAlign=middle;whiteSpace=wrap;rounded=0;fontSize=22;" parent="1" vertex="1">
          <mxGeometry x="3821" y="109" width="160" height="40" as="geometry" />
        </mxCell>
        <mxCell id="zAQJWHDo3wseyvUyDu6P-50" value="" style="sketch=0;points=[[0,0,0],[0.25,0,0],[0.5,0,0],[0.75,0,0],[1,0,0],[0,1,0],[0.25,1,0],[0.5,1,0],[0.75,1,0],[1,1,0],[0,0.25,0],[0,0.5,0],[0,0.75,0],[1,0.25,0],[1,0.5,0],[1,0.75,0]];outlineConnect=0;fontColor=#232F3E;fillColor=#8C4FFF;strokeColor=#ffffff;dashed=0;verticalLabelPosition=bottom;verticalAlign=top;align=center;html=1;fontSize=12;fontStyle=0;aspect=fixed;shape=mxgraph.aws4.resourceIcon;resIcon=mxgraph.aws4.sql_workbench;" parent="1" vertex="1">
          <mxGeometry x="-277.59" y="276" width="78" height="78" as="geometry" />
        </mxCell>
        <mxCell id="zAQJWHDo3wseyvUyDu6P-54" value="Feature Selection / Engineering" style="text;strokeColor=none;align=center;fillColor=none;html=1;verticalAlign=middle;whiteSpace=wrap;rounded=0;fontSize=22;" parent="1" vertex="1">
          <mxGeometry x="3762" y="836.38" width="290" height="20.62" as="geometry" />
        </mxCell>
        <mxCell id="zAQJWHDo3wseyvUyDu6P-55" value="" style="endArrow=classic;html=1;rounded=0;" parent="1" edge="1">
          <mxGeometry width="50" height="50" relative="1" as="geometry">
            <mxPoint x="3411.83" y="628.71" as="sourcePoint" />
            <mxPoint x="3741.83" y="628.71" as="targetPoint" />
          </mxGeometry>
        </mxCell>
        <mxCell id="zAQJWHDo3wseyvUyDu6P-56" value="" style="shape=flexArrow;endArrow=classic;html=1;rounded=0;" parent="1" edge="1">
          <mxGeometry width="50" height="50" relative="1" as="geometry">
            <mxPoint x="3817.83" y="628.12" as="sourcePoint" />
            <mxPoint x="4202" y="631" as="targetPoint" />
          </mxGeometry>
        </mxCell>
        <mxCell id="zAQJWHDo3wseyvUyDu6P-59" value="" style="outlineConnect=0;dashed=0;verticalLabelPosition=bottom;verticalAlign=top;align=center;html=1;shape=mxgraph.aws3.iam;fillColor=#759C3E;gradientColor=none;" parent="1" vertex="1">
          <mxGeometry x="1030.31" y="2458" width="42" height="81" as="geometry" />
        </mxCell>
        <mxCell id="zAQJWHDo3wseyvUyDu6P-60" value="" style="rounded=1;whiteSpace=wrap;html=1;fillColor=none;dashed=1;dashPattern=12 12;fontSize=22;strokeWidth=5;" parent="1" vertex="1">
          <mxGeometry x="959.31" y="2376" width="638" height="770" as="geometry" />
        </mxCell>
        <mxCell id="zAQJWHDo3wseyvUyDu6P-62" value="" style="shape=flexArrow;endArrow=classic;html=1;rounded=0;entryX=0.5;entryY=0;entryDx=0;entryDy=0;entryPerimeter=0;" parent="1" target="zAQJWHDo3wseyvUyDu6P-61" edge="1">
          <mxGeometry width="50" height="50" relative="1" as="geometry">
            <mxPoint x="4257" y="1364" as="sourcePoint" />
            <mxPoint x="4257.719999999999" y="1693.749999999999" as="targetPoint" />
          </mxGeometry>
        </mxCell>
        <mxCell id="zAQJWHDo3wseyvUyDu6P-61" value="" style="sketch=0;points=[[0,0,0],[0.25,0,0],[0.5,0,0],[0.75,0,0],[1,0,0],[0,1,0],[0.25,1,0],[0.5,1,0],[0.75,1,0],[1,1,0],[0,0.25,0],[0,0.5,0],[0,0.75,0],[1,0.25,0],[1,0.5,0],[1,0.75,0]];outlineConnect=0;fontColor=#232F3E;fillColor=#ED7100;strokeColor=#ffffff;dashed=0;verticalLabelPosition=bottom;verticalAlign=top;align=center;html=1;fontSize=12;fontStyle=0;aspect=fixed;shape=mxgraph.aws4.resourceIcon;resIcon=mxgraph.aws4.lambda;" parent="1" vertex="1">
          <mxGeometry x="4217.83" y="1521.75" width="78" height="78" as="geometry" />
        </mxCell>
        <mxCell id="zAQJWHDo3wseyvUyDu6P-63" value="" style="sketch=0;outlineConnect=0;fontColor=#232F3E;gradientColor=none;fillColor=#DD344C;strokeColor=none;dashed=0;verticalLabelPosition=bottom;verticalAlign=top;align=center;html=1;fontSize=12;fontStyle=0;aspect=fixed;pointerEvents=1;shape=mxgraph.aws4.addon;" parent="1" vertex="1">
          <mxGeometry x="1030.31" y="2634" width="78" height="40" as="geometry" />
        </mxCell>
        <mxCell id="zAQJWHDo3wseyvUyDu6P-64" value="" style="sketch=0;outlineConnect=0;fontColor=#232F3E;gradientColor=none;fillColor=#DD344C;strokeColor=none;dashed=0;verticalLabelPosition=bottom;verticalAlign=top;align=center;html=1;fontSize=12;fontStyle=0;aspect=fixed;pointerEvents=1;shape=mxgraph.aws4.addon;" parent="1" vertex="1">
          <mxGeometry x="1030.31" y="2920" width="78" height="40" as="geometry" />
        </mxCell>
        <mxCell id="zAQJWHDo3wseyvUyDu6P-65" value="" style="sketch=0;outlineConnect=0;fontColor=#232F3E;gradientColor=none;fillColor=#DD344C;strokeColor=none;dashed=0;verticalLabelPosition=bottom;verticalAlign=top;align=center;html=1;fontSize=12;fontStyle=0;aspect=fixed;pointerEvents=1;shape=mxgraph.aws4.addon;" parent="1" vertex="1">
          <mxGeometry x="1399.31" y="2634" width="78" height="40" as="geometry" />
        </mxCell>
        <mxCell id="zAQJWHDo3wseyvUyDu6P-67" value="" style="sketch=0;outlineConnect=0;fontColor=#232F3E;gradientColor=none;fillColor=#DD344C;strokeColor=none;dashed=0;verticalLabelPosition=bottom;verticalAlign=top;align=center;html=1;fontSize=12;fontStyle=0;aspect=fixed;pointerEvents=1;shape=mxgraph.aws4.addon;" parent="1" vertex="1">
          <mxGeometry x="1399.31" y="2920" width="78" height="40" as="geometry" />
        </mxCell>
        <mxCell id="zAQJWHDo3wseyvUyDu6P-68" value="" style="shape=image;html=1;verticalAlign=top;verticalLabelPosition=bottom;labelBackgroundColor=#ffffff;imageAspect=0;aspect=fixed;image=https://cdn1.iconfinder.com/data/icons/unicons-line-vol-3/24/github-alt-128.png" parent="1" vertex="1">
          <mxGeometry x="2291.45" y="2607" width="110" height="110" as="geometry" />
        </mxCell>
        <mxCell id="zAQJWHDo3wseyvUyDu6P-69" value="" style="sketch=0;verticalLabelPosition=bottom;sketch=0;aspect=fixed;html=1;verticalAlign=top;strokeColor=none;fillColor=#000000;align=center;outlineConnect=0;pointerEvents=1;shape=mxgraph.citrix2.citrix_terraform_provider;" parent="1" vertex="1">
          <mxGeometry x="1994.5699999999997" y="2618" width="80.48" height="88" as="geometry" />
        </mxCell>
        <mxCell id="zAQJWHDo3wseyvUyDu6P-72" value="Data Engineer" style="text;strokeColor=none;align=center;fillColor=none;html=1;verticalAlign=middle;whiteSpace=wrap;rounded=0;fontSize=22;" parent="1" vertex="1">
          <mxGeometry x="989.31" y="2744" width="160" height="40" as="geometry" />
        </mxCell>
        <mxCell id="zAQJWHDo3wseyvUyDu6P-73" value="Analyst" style="text;strokeColor=none;align=center;fillColor=none;html=1;verticalAlign=middle;whiteSpace=wrap;rounded=0;fontSize=22;" parent="1" vertex="1">
          <mxGeometry x="1354.31" y="2744" width="160" height="40" as="geometry" />
        </mxCell>
        <mxCell id="zAQJWHDo3wseyvUyDu6P-74" value="Dev&amp;amp;Ops" style="text;strokeColor=none;align=center;fillColor=none;html=1;verticalAlign=middle;whiteSpace=wrap;rounded=0;fontSize=22;" parent="1" vertex="1">
          <mxGeometry x="989.31" y="3008" width="160" height="40" as="geometry" />
        </mxCell>
        <mxCell id="zAQJWHDo3wseyvUyDu6P-75" value="Data Entry" style="text;strokeColor=none;align=center;fillColor=none;html=1;verticalAlign=middle;whiteSpace=wrap;rounded=0;fontSize=22;" parent="1" vertex="1">
          <mxGeometry x="1377.31" y="3008" width="160" height="40" as="geometry" />
        </mxCell>
        <mxCell id="zAQJWHDo3wseyvUyDu6P-76" value="CI / CD / IAC" style="text;strokeColor=none;align=center;fillColor=none;html=1;verticalAlign=middle;whiteSpace=wrap;rounded=0;fontSize=22;" parent="1" vertex="1">
          <mxGeometry x="1956.6399999999999" y="2483" width="160" height="40" as="geometry" />
        </mxCell>
        <mxCell id="zAQJWHDo3wseyvUyDu6P-77" value="" style="rounded=1;whiteSpace=wrap;html=1;fillColor=none;dashed=1;dashPattern=12 12;fontSize=22;strokeWidth=5;" parent="1" vertex="1">
          <mxGeometry x="1883.81" y="2376" width="638" height="770" as="geometry" />
        </mxCell>
        <mxCell id="zAQJWHDo3wseyvUyDu6P-78" value="" style="sketch=0;points=[[0,0,0],[0.25,0,0],[0.5,0,0],[0.75,0,0],[1,0,0],[0,1,0],[0.25,1,0],[0.5,1,0],[0.75,1,0],[1,1,0],[0,0.25,0],[0,0.5,0],[0,0.75,0],[1,0.25,0],[1,0.5,0],[1,0.75,0]];points=[[0,0,0],[0.25,0,0],[0.5,0,0],[0.75,0,0],[1,0,0],[0,1,0],[0.25,1,0],[0.5,1,0],[0.75,1,0],[1,1,0],[0,0.25,0],[0,0.5,0],[0,0.75,0],[1,0.25,0],[1,0.5,0],[1,0.75,0]];outlineConnect=0;fontColor=#232F3E;fillColor=#E7157B;strokeColor=#ffffff;dashed=0;verticalLabelPosition=bottom;verticalAlign=top;align=center;html=1;fontSize=12;fontStyle=0;aspect=fixed;shape=mxgraph.aws4.resourceIcon;resIcon=mxgraph.aws4.cloudformation;" parent="1" vertex="1">
          <mxGeometry x="1997.6399999999999" y="2867" width="78" height="78" as="geometry" />
        </mxCell>
        <mxCell id="zAQJWHDo3wseyvUyDu6P-79" value="Terraform" style="text;strokeColor=none;align=center;fillColor=none;html=1;verticalAlign=middle;whiteSpace=wrap;rounded=0;fontSize=22;" parent="1" vertex="1">
          <mxGeometry x="1956.6399999999999" y="2749" width="160" height="40" as="geometry" />
        </mxCell>
        <mxCell id="zAQJWHDo3wseyvUyDu6P-80" value="GitHub" style="text;strokeColor=none;align=center;fillColor=none;html=1;verticalAlign=middle;whiteSpace=wrap;rounded=0;fontSize=22;" parent="1" vertex="1">
          <mxGeometry x="2266.45" y="2749" width="160" height="40" as="geometry" />
        </mxCell>
        <mxCell id="zAQJWHDo3wseyvUyDu6P-81" value="Cloudformation" style="text;strokeColor=none;align=center;fillColor=none;html=1;verticalAlign=middle;whiteSpace=wrap;rounded=0;fontSize=22;" parent="1" vertex="1">
          <mxGeometry x="1954.81" y="2993" width="160" height="40" as="geometry" />
        </mxCell>
        <mxCell id="zAQJWHDo3wseyvUyDu6P-82" value="IAM" style="text;strokeColor=none;align=center;fillColor=none;html=1;verticalAlign=middle;whiteSpace=wrap;rounded=0;fontSize=22;" parent="1" vertex="1">
          <mxGeometry x="1072.31" y="2478.5" width="160" height="40" as="geometry" />
        </mxCell>
        <mxCell id="CpkmgVg2mhcoL7ge-9UP-47" value="" style="sketch=0;points=[[0,0,0],[0.25,0,0],[0.5,0,0],[0.75,0,0],[1,0,0],[0,1,0],[0.25,1,0],[0.5,1,0],[0.75,1,0],[1,1,0],[0,0.25,0],[0,0.5,0],[0,0.75,0],[1,0.25,0],[1,0.5,0],[1,0.75,0]];outlineConnect=0;fontColor=#232F3E;fillColor=#8C4FFF;strokeColor=#ffffff;dashed=0;verticalLabelPosition=bottom;verticalAlign=top;align=center;html=1;fontSize=12;fontStyle=0;aspect=fixed;shape=mxgraph.aws4.resourceIcon;resIcon=mxgraph.aws4.glue;" parent="1" vertex="1">
          <mxGeometry x="1254" y="598.62" width="78" height="78" as="geometry" />
        </mxCell>
        <mxCell id="1NuCZI-JP2uu5joDoUmU-1" value="S3" style="text;strokeColor=none;align=center;fillColor=none;html=1;verticalAlign=middle;whiteSpace=wrap;rounded=0;fontSize=22;" parent="1" vertex="1">
          <mxGeometry x="-407.19000000000005" y="2438.5" width="160" height="40" as="geometry" />
        </mxCell>
        <mxCell id="1NuCZI-JP2uu5joDoUmU-3" value="" style="sketch=0;points=[[0,0,0],[0.25,0,0],[0.5,0,0],[0.75,0,0],[1,0,0],[0,1,0],[0.25,1,0],[0.5,1,0],[0.75,1,0],[1,1,0],[0,0.25,0],[0,0.5,0],[0,0.75,0],[1,0.25,0],[1,0.5,0],[1,0.75,0]];points=[[0,0,0],[0.25,0,0],[0.5,0,0],[0.75,0,0],[1,0,0],[0,1,0],[0.25,1,0],[0.5,1,0],[0.75,1,0],[1,1,0],[0,0.25,0],[0,0.5,0],[0,0.75,0],[1,0.25,0],[1,0.5,0],[1,0.75,0]];outlineConnect=0;fontColor=#232F3E;fillColor=#E7157B;strokeColor=#ffffff;dashed=0;verticalLabelPosition=bottom;verticalAlign=top;align=center;html=1;fontSize=12;fontStyle=0;aspect=fixed;shape=mxgraph.aws4.resourceIcon;resIcon=mxgraph.aws4.cloudwatch_2;" parent="1" vertex="1">
          <mxGeometry x="-549" y="269" width="88" height="88" as="geometry" />
        </mxCell>
        <mxCell id="1NuCZI-JP2uu5joDoUmU-4" value="" style="sketch=0;points=[[0,0,0],[0.25,0,0],[0.5,0,0],[0.75,0,0],[1,0,0],[0,1,0],[0.25,1,0],[0.5,1,0],[0.75,1,0],[1,1,0],[0,0.25,0],[0,0.5,0],[0,0.75,0],[1,0.25,0],[1,0.5,0],[1,0.75,0]];outlineConnect=0;fontColor=#232F3E;fillColor=#C925D1;strokeColor=#ffffff;dashed=0;verticalLabelPosition=bottom;verticalAlign=top;align=center;html=1;fontSize=12;fontStyle=0;aspect=fixed;shape=mxgraph.aws4.resourceIcon;resIcon=mxgraph.aws4.rds;" parent="1" vertex="1">
          <mxGeometry x="-1031" y="274" width="78" height="78" as="geometry" />
        </mxCell>
        <mxCell id="1NuCZI-JP2uu5joDoUmU-5" value="" style="sketch=0;points=[[0,0,0],[0.25,0,0],[0.5,0,0],[0.75,0,0],[1,0,0],[0,1,0],[0.25,1,0],[0.5,1,0],[0.75,1,0],[1,1,0],[0,0.25,0],[0,0.5,0],[0,0.75,0],[1,0.25,0],[1,0.5,0],[1,0.75,0]];outlineConnect=0;fontColor=#232F3E;fillColor=#C925D1;strokeColor=#ffffff;dashed=0;verticalLabelPosition=bottom;verticalAlign=top;align=center;html=1;fontSize=12;fontStyle=0;aspect=fixed;shape=mxgraph.aws4.resourceIcon;resIcon=mxgraph.aws4.rds;" parent="1" vertex="1">
          <mxGeometry x="180" y="220" width="78" height="78" as="geometry" />
        </mxCell>
        <mxCell id="1NuCZI-JP2uu5joDoUmU-6" value="" style="sketch=0;points=[[0,0,0],[0.25,0,0],[0.5,0,0],[0.75,0,0],[1,0,0],[0,1,0],[0.25,1,0],[0.5,1,0],[0.75,1,0],[1,1,0],[0,0.25,0],[0,0.5,0],[0,0.75,0],[1,0.25,0],[1,0.5,0],[1,0.75,0]];outlineConnect=0;fontColor=#232F3E;fillColor=#C925D1;strokeColor=#ffffff;dashed=0;verticalLabelPosition=bottom;verticalAlign=top;align=center;html=1;fontSize=12;fontStyle=0;aspect=fixed;shape=mxgraph.aws4.resourceIcon;resIcon=mxgraph.aws4.rds;" parent="1" vertex="1">
          <mxGeometry x="571" y="330" width="78" height="78" as="geometry" />
        </mxCell>
        <mxCell id="1NuCZI-JP2uu5joDoUmU-7" value="" style="sketch=0;points=[[0,0,0],[0.25,0,0],[0.5,0,0],[0.75,0,0],[1,0,0],[0,1,0],[0.25,1,0],[0.5,1,0],[0.75,1,0],[1,1,0],[0,0.25,0],[0,0.5,0],[0,0.75,0],[1,0.25,0],[1,0.5,0],[1,0.75,0]];outlineConnect=0;fontColor=#232F3E;fillColor=#C925D1;strokeColor=#ffffff;dashed=0;verticalLabelPosition=bottom;verticalAlign=top;align=center;html=1;fontSize=12;fontStyle=0;aspect=fixed;shape=mxgraph.aws4.resourceIcon;resIcon=mxgraph.aws4.rds;" parent="1" vertex="1">
          <mxGeometry x="186.07" y="836.3800000000001" width="78" height="78" as="geometry" />
        </mxCell>
        <mxCell id="1NuCZI-JP2uu5joDoUmU-9" value="Data Cleaning" style="text;strokeColor=none;align=center;fillColor=none;html=1;verticalAlign=middle;whiteSpace=wrap;rounded=0;fontSize=22;" parent="1" vertex="1">
          <mxGeometry x="1606.5" y="554" width="160" height="30" as="geometry" />
        </mxCell>
        <mxCell id="1NuCZI-JP2uu5joDoUmU-10" value="" style="shape=flexArrow;endArrow=classic;html=1;rounded=0;exitX=1;exitY=0.5;exitDx=0;exitDy=0;exitPerimeter=0;" parent="1" edge="1">
          <mxGeometry width="50" height="50" relative="1" as="geometry">
            <mxPoint x="1728" y="639.85" as="sourcePoint" />
            <mxPoint x="2064" y="639.85" as="targetPoint" />
            <Array as="points">
              <mxPoint x="1936" y="639.47" />
            </Array>
          </mxGeometry>
        </mxCell>
        <mxCell id="1NuCZI-JP2uu5joDoUmU-12" value="Data Transformation" style="text;strokeColor=none;align=center;fillColor=none;html=1;verticalAlign=middle;whiteSpace=wrap;rounded=0;fontSize=22;" parent="1" vertex="1">
          <mxGeometry x="2024.5" y="547" width="160" height="30" as="geometry" />
        </mxCell>
        <mxCell id="1NuCZI-JP2uu5joDoUmU-14" value="CloudWatch" style="text;strokeColor=none;align=center;fillColor=none;html=1;verticalAlign=middle;whiteSpace=wrap;rounded=0;fontSize=22;" parent="1" vertex="1">
          <mxGeometry x="-585" y="210" width="160" height="40" as="geometry" />
        </mxCell>
        <mxCell id="1NuCZI-JP2uu5joDoUmU-15" value="" style="sketch=0;points=[[0,0,0],[0.25,0,0],[0.5,0,0],[0.75,0,0],[1,0,0],[0,1,0],[0.25,1,0],[0.5,1,0],[0.75,1,0],[1,1,0],[0,0.25,0],[0,0.5,0],[0,0.75,0],[1,0.25,0],[1,0.5,0],[1,0.75,0]];outlineConnect=0;fontColor=#232F3E;fillColor=#8C4FFF;strokeColor=#ffffff;dashed=0;verticalLabelPosition=bottom;verticalAlign=top;align=center;html=1;fontSize=12;fontStyle=0;aspect=fixed;shape=mxgraph.aws4.resourceIcon;resIcon=mxgraph.aws4.sql_workbench;" parent="1" vertex="1">
          <mxGeometry x="1647.5" y="598.62" width="78" height="78" as="geometry" />
        </mxCell>
        <mxCell id="1NuCZI-JP2uu5joDoUmU-16" value="" style="sketch=0;points=[[0,0,0],[0.25,0,0],[0.5,0,0],[0.75,0,0],[1,0,0],[0,1,0],[0.25,1,0],[0.5,1,0],[0.75,1,0],[1,1,0],[0,0.25,0],[0,0.5,0],[0,0.75,0],[1,0.25,0],[1,0.5,0],[1,0.75,0]];outlineConnect=0;fontColor=#232F3E;fillColor=#8C4FFF;strokeColor=#ffffff;dashed=0;verticalLabelPosition=bottom;verticalAlign=top;align=center;html=1;fontSize=12;fontStyle=0;aspect=fixed;shape=mxgraph.aws4.resourceIcon;resIcon=mxgraph.aws4.sql_workbench;" parent="1" vertex="1">
          <mxGeometry x="2065.5" y="601" width="78" height="78" as="geometry" />
        </mxCell>
        <mxCell id="1NuCZI-JP2uu5joDoUmU-17" value="" style="sketch=0;points=[[0,0,0],[0.25,0,0],[0.5,0,0],[0.75,0,0],[1,0,0],[0,1,0],[0.25,1,0],[0.5,1,0],[0.75,1,0],[1,1,0],[0,0.25,0],[0,0.5,0],[0,0.75,0],[1,0.25,0],[1,0.5,0],[1,0.75,0]];outlineConnect=0;fontColor=#232F3E;fillColor=#8C4FFF;strokeColor=#ffffff;dashed=0;verticalLabelPosition=bottom;verticalAlign=top;align=center;html=1;fontSize=12;fontStyle=0;aspect=fixed;shape=mxgraph.aws4.resourceIcon;resIcon=mxgraph.aws4.sql_workbench;" parent="1" vertex="1">
          <mxGeometry x="2486" y="601" width="78" height="78" as="geometry" />
        </mxCell>
        <mxCell id="1NuCZI-JP2uu5joDoUmU-18" value="" style="shape=flexArrow;endArrow=classic;html=1;rounded=0;exitX=1;exitY=0.5;exitDx=0;exitDy=0;exitPerimeter=0;" parent="1" edge="1">
          <mxGeometry width="50" height="50" relative="1" as="geometry">
            <mxPoint x="2143.5" y="641" as="sourcePoint" />
            <mxPoint x="2479.5" y="641" as="targetPoint" />
            <Array as="points">
              <mxPoint x="2351.5" y="640.62" />
            </Array>
          </mxGeometry>
        </mxCell>
        <mxCell id="1NuCZI-JP2uu5joDoUmU-19" value="Data Validate" style="text;strokeColor=none;align=center;fillColor=none;html=1;verticalAlign=middle;whiteSpace=wrap;rounded=0;fontSize=22;" parent="1" vertex="1">
          <mxGeometry x="2445" y="550" width="160" height="30" as="geometry" />
        </mxCell>
        <mxCell id="1NuCZI-JP2uu5joDoUmU-20" value="" style="shape=flexArrow;endArrow=classic;html=1;rounded=0;exitX=1;exitY=0.5;exitDx=0;exitDy=0;exitPerimeter=0;" parent="1" edge="1">
          <mxGeometry width="50" height="50" relative="1" as="geometry">
            <mxPoint x="2564" y="641" as="sourcePoint" />
            <mxPoint x="2900" y="641" as="targetPoint" />
            <Array as="points">
              <mxPoint x="2772" y="640.62" />
            </Array>
          </mxGeometry>
        </mxCell>
        <mxCell id="1NuCZI-JP2uu5joDoUmU-22" value="" style="shape=flexArrow;endArrow=classic;html=1;rounded=0;exitX=1;exitY=0.5;exitDx=0;exitDy=0;exitPerimeter=0;" parent="1" edge="1">
          <mxGeometry width="50" height="50" relative="1" as="geometry">
            <mxPoint x="2975" y="637.09" as="sourcePoint" />
            <mxPoint x="3311" y="637.09" as="targetPoint" />
            <Array as="points">
              <mxPoint x="3183" y="636.71" />
            </Array>
          </mxGeometry>
        </mxCell>
        <mxCell id="1NuCZI-JP2uu5joDoUmU-27" value="Missing Value&lt;div&gt;&lt;/div&gt;&lt;div&gt;Duplication&lt;/div&gt;&lt;div&gt;Inconsistent&lt;/div&gt;&lt;div&gt;Outlier&lt;/div&gt;" style="text;strokeColor=none;align=center;fillColor=none;html=1;verticalAlign=middle;whiteSpace=wrap;rounded=0;fontSize=22;" parent="1" vertex="1">
          <mxGeometry x="1606.5" y="720" width="160" height="40" as="geometry" />
        </mxCell>
        <mxCell id="1NuCZI-JP2uu5joDoUmU-28" value="" style="endArrow=classic;html=1;rounded=0;strokeWidth=4;" parent="1" edge="1">
          <mxGeometry width="50" height="50" relative="1" as="geometry">
            <mxPoint x="2596" y="1100" as="sourcePoint" />
            <mxPoint x="3696" y="1100" as="targetPoint" />
          </mxGeometry>
        </mxCell>
        <mxCell id="1NuCZI-JP2uu5joDoUmU-29" value="" style="sketch=0;points=[[0,0,0],[0.25,0,0],[0.5,0,0],[0.75,0,0],[1,0,0],[0,1,0],[0.25,1,0],[0.5,1,0],[0.75,1,0],[1,1,0],[0,0.25,0],[0,0.5,0],[0,0.75,0],[1,0.25,0],[1,0.5,0],[1,0.75,0]];outlineConnect=0;fontColor=#232F3E;fillColor=#01A88D;strokeColor=#ffffff;dashed=0;verticalLabelPosition=bottom;verticalAlign=top;align=center;html=1;fontSize=12;fontStyle=0;aspect=fixed;shape=mxgraph.aws4.resourceIcon;resIcon=mxgraph.aws4.sagemaker;" parent="1" vertex="1">
          <mxGeometry x="3762" y="1445.75" width="78" height="78" as="geometry" />
        </mxCell>
        <mxCell id="1NuCZI-JP2uu5joDoUmU-30" value="Sagemaker" style="text;strokeColor=none;align=center;fillColor=none;html=1;verticalAlign=middle;whiteSpace=wrap;rounded=0;fontSize=22;" parent="1" vertex="1">
          <mxGeometry x="3685.83" y="1558.75" width="240" height="30" as="geometry" />
        </mxCell>
        <mxCell id="1NuCZI-JP2uu5joDoUmU-31" value="" style="shape=flexArrow;endArrow=classic;html=1;rounded=0;entryX=0;entryY=1;entryDx=0;entryDy=0;entryPerimeter=0;" parent="1" target="CpkmgVg2mhcoL7ge-9UP-119" edge="1">
          <mxGeometry width="50" height="50" relative="1" as="geometry">
            <mxPoint x="3846.33" y="1476.37" as="sourcePoint" />
            <mxPoint x="4218.5" y="1671.1399999999999" as="targetPoint" />
            <Array as="points" />
          </mxGeometry>
        </mxCell>
        <mxCell id="1NuCZI-JP2uu5joDoUmU-33" value="" style="rounded=1;whiteSpace=wrap;html=1;fillColor=none;dashed=1;dashPattern=12 12;strokeColor=#FF3333;strokeWidth=8;" parent="1" vertex="1">
          <mxGeometry x="968" y="445" width="2058.5" height="396.38" as="geometry" />
        </mxCell>
        <mxCell id="1NuCZI-JP2uu5joDoUmU-35" value="" style="rounded=1;whiteSpace=wrap;html=1;fillColor=none;dashed=1;dashPattern=12 12;fontSize=22;strokeWidth=6;" parent="1" vertex="1">
          <mxGeometry x="3190" y="20" width="1650" height="1938" as="geometry" />
        </mxCell>
        <mxCell id="1NuCZI-JP2uu5joDoUmU-36" value="&lt;font color=&quot;#ff0000&quot;&gt;ETL Process&lt;/font&gt;" style="text;align=center;html=1;verticalAlign=middle;whiteSpace=wrap;rounded=0;fontSize=40;" parent="1" vertex="1">
          <mxGeometry x="1501.57" y="317" width="1167.87" height="50" as="geometry" />
        </mxCell>
        <mxCell id="1NuCZI-JP2uu5joDoUmU-41" value="Normalize Data&lt;div&gt;Date/Time Stanardization&lt;/div&gt;&lt;div&gt;Data Encoding&lt;/div&gt;&lt;div&gt;Collapse or Aggregate Data&lt;/div&gt;&lt;div&gt;&lt;br&gt;&lt;/div&gt;" style="text;strokeColor=none;align=center;fillColor=none;html=1;verticalAlign=middle;whiteSpace=wrap;rounded=0;fontSize=22;" parent="1" vertex="1">
          <mxGeometry x="1879.5" y="755" width="452.5" height="40" as="geometry" />
        </mxCell>
        <mxCell id="1NuCZI-JP2uu5joDoUmU-42" value="&lt;div&gt;Domain Validation&lt;/div&gt;&lt;div&gt;Data Type Validation&lt;/div&gt;&lt;div&gt;Cross-Field Validation&lt;/div&gt;&lt;div&gt;Referential Intergrity&lt;/div&gt;" style="text;strokeColor=none;align=center;fillColor=none;html=1;verticalAlign=middle;whiteSpace=wrap;rounded=0;fontSize=22;" parent="1" vertex="1">
          <mxGeometry x="2309.5" y="748" width="452.5" height="40" as="geometry" />
        </mxCell>
        <mxCell id="1NuCZI-JP2uu5joDoUmU-45" value="" style="outlineConnect=0;dashed=0;verticalLabelPosition=bottom;verticalAlign=top;align=center;html=1;shape=mxgraph.aws3.dynamo_db;fillColor=#2E73B8;gradientColor=none;" parent="1" vertex="1">
          <mxGeometry x="2521.81" y="1670.5" width="83.19" height="81" as="geometry" />
        </mxCell>
        <mxCell id="1NuCZI-JP2uu5joDoUmU-46" value="&lt;span style=&quot;font-size: 22px;&quot;&gt;Dynamo Database (Optional)&lt;/span&gt;" style="text;strokeColor=none;align=center;fillColor=none;html=1;verticalAlign=middle;whiteSpace=wrap;rounded=0;" parent="1" vertex="1">
          <mxGeometry x="2460.4300000000003" y="1772.25" width="220" height="70" as="geometry" />
        </mxCell>
        <mxCell id="1NuCZI-JP2uu5joDoUmU-47" value="" style="sketch=0;outlineConnect=0;fontColor=#232F3E;gradientColor=none;fillColor=#7AA116;strokeColor=none;dashed=0;verticalLabelPosition=bottom;verticalAlign=top;align=center;html=1;fontSize=12;fontStyle=0;aspect=fixed;pointerEvents=1;shape=mxgraph.aws4.bucket;" parent="1" vertex="1">
          <mxGeometry x="1673.5" y="1670.5" width="75" height="78" as="geometry" />
        </mxCell>
        <mxCell id="1NuCZI-JP2uu5joDoUmU-48" value="Analytics Sandbox" style="text;strokeColor=none;align=center;fillColor=none;html=1;verticalAlign=middle;whiteSpace=wrap;rounded=0;fontSize=22;" parent="1" vertex="1">
          <mxGeometry x="1567.4999999999998" y="1772.25" width="290" height="30" as="geometry" />
        </mxCell>
        <mxCell id="1NuCZI-JP2uu5joDoUmU-52" value="LLM" style="text;strokeColor=none;align=center;fillColor=none;html=1;verticalAlign=middle;whiteSpace=wrap;rounded=0;fontSize=22;" parent="1" vertex="1">
          <mxGeometry x="3666" y="1588.75" width="290" height="30" as="geometry" />
        </mxCell>
        <mxCell id="1NuCZI-JP2uu5joDoUmU-53" value="" style="shape=flexArrow;endArrow=classic;html=1;rounded=0;" parent="1" edge="1">
          <mxGeometry width="50" height="50" relative="1" as="geometry">
            <mxPoint x="2508" y="1716" as="sourcePoint" />
            <mxPoint x="1760" y="1716" as="targetPoint" />
            <Array as="points" />
          </mxGeometry>
        </mxCell>
        <mxCell id="1NuCZI-JP2uu5joDoUmU-56" value="" style="rounded=1;whiteSpace=wrap;html=1;fillColor=none;dashed=1;dashPattern=12 12;strokeColor=#3399FF;strokeWidth=8;" parent="1" vertex="1">
          <mxGeometry x="930.25" y="1" width="2134" height="1848" as="geometry" />
        </mxCell>
        <mxCell id="1NuCZI-JP2uu5joDoUmU-57" value="" style="points=[];aspect=fixed;html=1;align=center;shadow=0;dashed=0;fillColor=#FF6A00;strokeColor=none;shape=mxgraph.alibaba_cloud.user_feedback_02;" parent="1" vertex="1">
          <mxGeometry x="5566" y="1752.15" width="43.199999999999996" height="50.099999999999994" as="geometry" />
        </mxCell>
        <mxCell id="1NuCZI-JP2uu5joDoUmU-58" value="" style="sketch=0;points=[[0,0,0],[0.25,0,0],[0.5,0,0],[0.75,0,0],[1,0,0],[0,1,0],[0.25,1,0],[0.5,1,0],[0.75,1,0],[1,1,0],[0,0.25,0],[0,0.5,0],[0,0.75,0],[1,0.25,0],[1,0.5,0],[1,0.75,0]];outlineConnect=0;fontColor=#232F3E;fillColor=#8C4FFF;strokeColor=#ffffff;dashed=0;verticalLabelPosition=bottom;verticalAlign=top;align=center;html=1;fontSize=12;fontStyle=0;aspect=fixed;shape=mxgraph.aws4.resourceIcon;resIcon=mxgraph.aws4.lake_formation;" parent="1" vertex="1">
          <mxGeometry x="1061.31" y="85" width="88" height="88" as="geometry" />
        </mxCell>
        <mxCell id="1NuCZI-JP2uu5joDoUmU-59" value="" style="verticalLabelPosition=bottom;html=1;verticalAlign=top;strokeWidth=2;shape=mxgraph.lean_mapping.warehouse;" parent="1" vertex="1">
          <mxGeometry x="3303.83" y="90" width="100" height="60" as="geometry" />
        </mxCell>
        <mxCell id="1NuCZI-JP2uu5joDoUmU-61" value="" style="shape=flexArrow;endArrow=classic;html=1;rounded=0;exitX=1;exitY=0.5;exitDx=0;exitDy=0;exitPerimeter=0;" parent="1" source="CpkmgVg2mhcoL7ge-9UP-56" target="CpkmgVg2mhcoL7ge-9UP-60" edge="1">
          <mxGeometry width="50" height="50" relative="1" as="geometry">
            <mxPoint x="11" y="1478" as="sourcePoint" />
            <mxPoint x="1672" y="1484" as="targetPoint" />
            <Array as="points" />
          </mxGeometry>
        </mxCell>
        <mxCell id="CpkmgVg2mhcoL7ge-9UP-60" value="" style="sketch=0;points=[[0,0,0],[0.25,0,0],[0.5,0,0],[0.75,0,0],[1,0,0],[0,1,0],[0.25,1,0],[0.5,1,0],[0.75,1,0],[1,1,0],[0,0.25,0],[0,0.5,0],[0,0.75,0],[1,0.25,0],[1,0.5,0],[1,0.75,0]];outlineConnect=0;fontColor=#232F3E;fillColor=#8C4FFF;strokeColor=#ffffff;dashed=0;verticalLabelPosition=bottom;verticalAlign=top;align=center;html=1;fontSize=12;fontStyle=0;aspect=fixed;shape=mxgraph.aws4.resourceIcon;resIcon=mxgraph.aws4.kinesis;" parent="1" vertex="1">
          <mxGeometry x="467.8099999999999" y="1446" width="78" height="78" as="geometry" />
        </mxCell>
        <mxCell id="1NuCZI-JP2uu5joDoUmU-62" value="" style="shape=flexArrow;endArrow=classic;html=1;rounded=0;strokeWidth=4;" parent="1" edge="1">
          <mxGeometry width="50" height="50" relative="1" as="geometry">
            <mxPoint x="4862" y="1782" as="sourcePoint" />
            <mxPoint x="5522" y="1782" as="targetPoint" />
          </mxGeometry>
        </mxCell>
        <mxCell id="1NuCZI-JP2uu5joDoUmU-63" value="User Feedback Investgation" style="text;strokeColor=none;align=center;fillColor=none;html=1;verticalAlign=middle;whiteSpace=wrap;rounded=0;fontSize=22;" parent="1" vertex="1">
          <mxGeometry x="5448.400000000001" y="1831.75" width="278.4" height="30" as="geometry" />
        </mxCell>
      </root>
    </mxGraphModel>
  </diagram>
</mxfile>
